<svg width="54" height="54" viewBox="0 0 54 54" fill="none" xmlns="http://www.w3.org/2000/svg">
<path d="M13.6274 13.3793H34.6533C35.1809 13.3793 35.6088 12.9517 35.6088 12.4237C35.6088 11.8957 35.1809 11.4681 34.6533 11.4681H13.6274C13.0998 11.4681 12.6718 11.8957 12.6718 12.4237C12.6718 12.9517 13.0998 13.3793 13.6274 13.3793Z" fill="#797DF2"/>
<path d="M16.1033 9.5568H32.1774L34.4328 5.07463C34.7564 4.39706 34.7136 3.60147 34.3196 2.96191C33.9256 2.32273 33.234 1.9272 32.4833 1.91112H29.8742V5.73416C29.8742 6.26174 29.4462 6.68972 28.9187 6.68972C28.3907 6.68972 27.9627 6.26174 27.9627 5.73416V0.955566C27.9627 0.701973 27.8623 0.459183 27.6831 0.279591C27.5035 0.100399 27.2607 0 27.0072 0H21.273C20.745 0 20.3174 0.427584 20.3174 0.955556V5.73415C20.3174 6.26173 19.8895 6.68971 19.3615 6.68971C18.8339 6.68971 18.4059 6.26173 18.4059 5.73415V1.91111H15.816C15.0605 1.92111 14.3621 2.31669 13.9653 2.95985C13.5682 3.60261 13.5274 4.40414 13.8569 5.08415L16.1033 9.5568Z" fill="#797DF2"/>
<path d="M36.564 33.4487C36.564 33.7023 36.6648 33.9455 36.844 34.1247C37.0232 34.3039 37.2663 34.4047 37.5199 34.4047H50.8989C51.4269 34.4047 51.8549 33.9767 51.8549 33.4487C51.8549 32.9211 51.4269 32.4932 50.8989 32.4932H37.5199C36.992 32.4932 36.564 32.9211 36.564 33.4487L36.564 33.4487Z" fill="#797DF2"/>
<path d="M37.5203 40.1393C36.9924 40.1393 36.5644 40.5669 36.5644 41.0948C36.5644 41.6228 36.9924 42.0504 37.5203 42.0504H50.8994C51.4273 42.0504 51.8553 41.6228 51.8553 41.0948C51.8553 40.5669 51.4273 40.1393 50.8994 40.1393H37.5203Z" fill="#797DF2"/>
<path d="M38.4757 37.2722C38.4757 37.5254 38.5765 37.7686 38.7557 37.9478C38.9349 38.127 39.1781 38.2278 39.4313 38.2278H52.8113C53.3393 38.2278 53.7669 37.7998 53.7669 37.2722C53.7669 36.7443 53.3393 36.3163 52.8113 36.3163H39.4313C38.9037 36.3163 38.4757 36.7443 38.4757 37.2722L38.4757 37.2722Z" fill="#797DF2"/>
<path d="M52.8111 43.9617H39.4311C38.9035 43.9617 38.4755 44.3897 38.4755 44.9172C38.4755 45.4452 38.9035 45.8732 39.4311 45.8732H52.8111C53.3391 45.8732 53.7667 45.4452 53.7667 44.9172C53.7667 44.3897 53.3391 43.9617 52.8111 43.9617Z" fill="#797DF2"/>
<path d="M20.3179 28.6709C20.3171 29.5181 20.5987 30.3416 21.1174 31.0112C21.6366 31.6807 22.3642 32.1587 23.1849 32.3691V24.9723C22.3641 25.1827 21.6366 25.6607 21.1174 26.3303C20.5987 27.0002 20.3171 27.8234 20.3179 28.6709Z" fill="#797DF2"/>
<path d="M51.8557 48.7405C51.8557 48.4869 51.755 48.2437 51.5758 48.0645C51.3966 47.8853 51.1534 47.7845 50.8998 47.7845H37.5208C36.9928 47.7845 36.5648 48.2125 36.5648 48.7405C36.5648 49.2681 36.9928 49.6961 37.5208 49.6961H50.8998C51.1534 49.6961 51.3966 49.5953 51.5758 49.4161C51.755 49.2369 51.8557 48.9937 51.8557 48.7405V48.7405Z" fill="#797DF2"/>
<path d="M34.6533 48.7405C34.6557 48.1125 34.8649 47.5025 35.2481 47.0054C35.6316 46.5078 36.168 46.1502 36.7748 45.9878C36.4944 45.3019 36.4944 44.5331 36.7748 43.8472C35.9584 43.6324 35.2793 43.0664 34.9212 42.3016C34.5631 41.5368 34.5632 40.6528 34.9212 39.8881C35.2792 39.1234 35.9584 38.5574 36.7748 38.3426C36.4944 37.6566 36.4944 36.8878 36.7748 36.2019C35.8712 35.9619 35.1425 35.2959 34.8225 34.4175C34.5025 33.5392 34.6325 32.56 35.1705 31.7957C35.7081 31.0313 36.5856 30.5781 37.5204 30.5821H43.3021C41.7158 23.1564 38.0743 18.139 32.1871 15.2914H16.0936C7.99868 19.2097 4.0713 27.3423 4.0713 40.1397C4.0697 42.3832 4.27089 44.6223 4.67327 46.8294H7.89392C8.4219 46.8294 8.84988 47.2574 8.84988 47.785C8.84988 48.313 8.4219 48.7409 7.89392 48.7409H2.63775C2.00418 48.7409 1.3962 48.9925 0.948224 49.4405C0.500243 49.8885 0.248657 50.4964 0.248657 51.13C0.250657 51.7628 0.503049 52.3695 0.95063 52.8172C1.39821 53.2648 2.005 53.5172 2.6378 53.5192H36.7366C36.495 52.8632 36.5086 52.14 36.775 51.4933C36.1682 51.3309 35.6318 50.9733 35.2482 50.4761C34.8651 49.9785 34.6559 49.369 34.6535 48.741L34.6533 48.7405ZM29.8747 38.2275C29.8751 39.5822 29.3955 40.893 28.5203 41.9274C27.6455 42.9614 26.4319 43.6517 25.0961 43.8757V43.9617C25.0961 44.4896 24.6685 44.9172 24.1405 44.9172C23.6126 44.9172 23.185 44.4896 23.185 43.9617V43.8757C21.849 43.6517 20.6355 42.9613 19.7608 41.9274C18.8856 40.893 18.4061 39.5823 18.4064 38.2275C18.4064 37.6996 18.8344 37.272 19.3619 37.272C19.8899 37.272 20.3179 37.6996 20.3179 38.2275C20.3171 39.0747 20.5987 39.8982 21.1175 40.5678C21.6366 41.2378 22.3642 41.7153 23.1849 41.9262V34.3189C21.3894 34.0169 19.8447 32.8793 19.0231 31.2546C18.2019 29.6299 18.2019 27.7112 19.0231 26.0864C19.8446 24.4617 21.3893 23.3245 23.1849 23.0225V22.9365C23.1849 22.4085 23.6125 21.9806 24.1405 21.9806C24.6685 21.9806 25.096 22.4085 25.096 22.9365V23.0225C26.432 23.2461 27.6455 23.9369 28.5202 24.9708C29.3954 26.0052 29.8749 27.3159 29.8746 28.6706C29.8746 29.1982 29.4466 29.6262 28.9191 29.6262C28.3911 29.6262 27.9631 29.1982 27.9631 28.6706C27.9639 27.8231 27.6823 27 27.1636 26.33C26.6444 25.6604 25.9168 25.1824 25.0961 24.972V32.5793C26.432 32.8033 27.6455 33.4937 28.5203 34.5276C29.3955 35.562 29.875 36.8726 29.8747 38.2274V38.2275Z" fill="#797DF2"/>
<path d="M52.8111 51.6075H39.4311C38.9035 51.6075 38.4755 52.0351 38.4755 52.5631C38.4755 53.0911 38.9035 53.5187 39.4311 53.5187H52.8111C53.3391 53.5187 53.7667 53.0911 53.7667 52.5631C53.7667 52.0351 53.3391 51.6075 52.8111 51.6075Z" fill="#797DF2"/>
<path d="M25.0956 41.9261C26.1943 41.6389 27.1083 40.8782 27.5903 39.8502C28.0723 38.8223 28.0723 37.6327 27.5903 36.6048C27.1083 35.5768 26.1943 34.816 25.0956 34.5289V41.9261Z" fill="#797DF2"/>
</svg>
