<svg width="53" height="57" viewBox="0 0 53 57" fill="none" xmlns="http://www.w3.org/2000/svg">
<path d="M15.3939 30.2427C23.7448 30.2427 30.4855 23.4426 30.4855 15.1512C30.4855 6.85937 23.7449 0 15.3939 0C7.04265 0 0.302368 6.80014 0.302368 15.0915C0.302368 23.3829 7.10251 30.2427 15.3939 30.2427ZM16.5868 16.4039H14.201C11.6363 16.4039 9.54828 14.3159 9.54828 11.7511C9.54828 9.18637 11.5763 7.15794 14.0816 7.0984V4.77203H16.6464V7.0984C19.1517 7.1579 21.1797 9.18637 21.1797 11.7511H18.6149C18.6149 10.6177 17.6604 9.66315 16.527 9.66315H14.1412C13.0077 9.66315 12.0532 10.6177 12.0532 11.7511C12.0532 12.8846 13.0077 13.8391 14.1412 13.8391H16.527C19.0917 13.8391 21.1797 15.9271 21.1797 18.4918C21.1797 20.9971 19.1517 23.085 16.6464 23.1446V25.4709H14.0816V23.1446C11.5763 23.0851 9.54828 21.0566 9.54828 18.4918H12.113C12.113 19.6253 13.0675 20.5798 14.201 20.5798H16.5868C17.7203 20.5798 18.6748 19.6253 18.6748 18.4918C18.6748 17.3584 17.7203 16.4039 16.5868 16.4039Z" fill="#797DF2"/>
<path d="M13.2465 46.9448C11.0395 47.1832 8.77273 47.3026 6.50591 47.3026V54.8783C6.50591 55.8923 7.28149 56.608 8.23555 56.608H15.3341C16.2886 56.608 17.0637 55.8324 17.0637 54.8783L17.0641 46.4675H17.0046C15.9902 46.6469 14.7378 46.7659 13.2465 46.9448L13.2465 46.9448Z" fill="#797DF2"/>
<path d="M25.4152 44.7975C24.2817 45.0958 23.2083 45.3342 22.0149 45.573V54.8784C22.0149 55.8924 22.7905 56.608 23.7446 56.608H30.9025C31.857 56.608 32.6322 55.8325 32.6322 54.8784L32.633 42.3518C31.5595 42.8291 30.426 43.1869 29.2327 43.6047C28.1592 44.022 26.7874 44.4393 25.4151 44.7972L25.4152 44.7975Z" fill="#797DF2"/>
<path d="M42.177 37.2218C40.9241 38.1763 39.5522 39.0709 38.0015 39.8465C37.8821 39.906 37.7631 39.9659 37.6437 40.0254V54.8784C37.6437 55.8924 38.4193 56.608 39.3734 56.608H46.4719C47.4859 56.608 48.2015 55.8325 48.2015 54.8784L48.2019 31.4358C46.6508 33.5233 44.6227 35.4324 42.177 37.2219L42.177 37.2218Z" fill="#797DF2"/>
<path d="M50.8859 15.9863C50.7665 14.9128 49.5736 14.2567 48.6191 14.7934L39.3137 19.6849C38.1803 20.2816 38.1803 21.8324 39.3137 22.4291L42.3558 24.0397C41.2823 26.1277 39.4328 28.1557 36.868 30.0048C35.9734 30.7205 34.8995 31.3766 33.6471 32.0328C32.5736 32.6295 31.4996 33.1663 30.3067 33.6435C30.2472 33.703 30.1873 33.703 30.0683 33.7629C28.8754 34.2401 27.6825 34.7174 26.4296 35.1347C26.1313 35.2541 25.833 35.3136 25.5946 35.4331C24.7 35.7314 23.7455 35.9698 22.791 36.2681C21.8365 36.5066 20.8225 36.7454 19.8085 36.9838C19.5101 37.0433 19.2717 37.1032 18.9734 37.1627C17.8999 37.3417 16.826 37.5805 15.7525 37.6995C14.679 37.8784 13.5455 37.9978 12.4716 38.1173H12.2332C9.90681 38.3557 7.52101 38.4751 5.07524 38.4751C3.64352 38.4751 2.45052 39.668 2.45052 41.0998C2.45052 42.5316 3.64342 43.7245 5.07524 43.7245C22.4932 43.7245 37.2864 38.4157 44.3252 30.4822C44.3847 30.4227 44.4446 30.3627 44.5041 30.3032C45.0409 29.7066 45.5181 29.0504 45.9954 28.3942C46.0549 28.3347 46.1148 28.2153 46.1743 28.1558C46.5321 27.619 46.8305 27.0823 47.0689 26.5451L49.8724 28.0364C51.0059 28.6331 52.2583 27.738 52.1393 26.4856L50.8859 15.9863Z" fill="#797DF2"/>
</svg>
