<svg width="41" height="60" viewBox="0 0 41 60" fill="none" xmlns="http://www.w3.org/2000/svg">
<path d="M20.2193 44.2538C18.4642 45.4449 16.2702 46.1344 14.0136 46.1344C11.6945 46.1344 9.56295 45.4448 7.80794 44.2538C4.23481 45.3818 1.47711 48.516 0.97565 52.4026L0.662148 57.0413C0.53666 58.4203 1.60221 59.6114 2.98129 59.6114H25.1083C26.4873 59.6114 27.5529 58.4203 27.4903 57.0413L27.0518 52.4026C26.6132 48.516 23.8551 45.3818 20.2195 44.2538H20.2193Z" fill="#797DF2"/>
<path d="M22.4132 34.726C22.4132 39.3651 18.6525 43.1254 14.0134 43.1254C9.37481 43.1254 5.61407 39.3651 5.61407 34.726C5.61407 30.0874 9.37481 26.3267 14.0134 26.3267C18.6525 26.3267 22.4132 30.0874 22.4132 34.726Z" fill="#797DF2"/>
<path d="M29.9352 33.8484C29.9352 35.4063 28.6724 36.669 27.1146 36.669C25.5567 36.669 24.2939 35.4063 24.2939 33.8484C24.2939 32.2906 25.5567 31.0278 27.1146 31.0278C28.6724 31.0278 29.9352 32.2906 29.9352 33.8484Z" fill="#797DF2"/>
<path d="M34.8244 26.6399C34.8244 28.6822 33.1685 30.3381 31.1262 30.3381C29.0834 30.3381 27.428 28.6822 27.428 26.6399C27.428 24.5971 29.0834 22.9413 31.1262 22.9413C33.1685 22.9413 34.8244 24.5971 34.8244 26.6399Z" fill="#797DF2"/>
<path d="M30.75 11.9723L29.935 11.8468C29.7469 11.8468 29.6215 11.9723 29.6215 12.0973V12.5363C29.6215 12.6618 29.7469 12.7869 29.872 12.7869L30.75 12.7873C30.938 12.7873 31.0635 12.5993 31.0005 12.4738L30.938 12.1603C30.938 12.0978 30.875 12.0353 30.75 11.9723L30.75 11.9723Z" fill="#797DF2"/>
<path d="M34.7617 11.8469L33.9467 11.9724C33.8212 11.9724 33.7587 12.0979 33.6962 12.1604L33.6336 12.4739C33.5711 12.6619 33.6962 12.7874 33.8842 12.7874H34.7617C34.8872 12.7874 35.0122 12.6619 35.0122 12.5369V12.0979C35.0748 11.972 34.9497 11.8469 34.7617 11.8469Z" fill="#797DF2"/>
<path d="M34.7617 10.7812C34.8242 10.7812 34.8872 10.7187 34.8242 10.6557L34.3852 9.33916C34.3227 9.15115 34.1347 8.96313 33.8837 8.96313H30.75C30.4995 8.96313 30.311 9.08862 30.2485 9.33916L29.8095 10.6557C29.8095 10.7182 29.8095 10.7812 29.872 10.7812H34.7617Z" fill="#797DF2"/>
<path d="M31.8783 2.63263C31.0008 2.63263 30.1858 2.82064 29.3713 3.00865C27.3027 1.19108 24.6701 0 21.6614 0C18.7153 0 16.0202 1.12806 13.9515 3.00865C13.1365 2.75811 12.3219 2.63263 11.4445 2.63263C6.49277 2.63263 2.48108 6.64431 2.48108 11.596C2.48108 16.5477 6.49277 20.5594 11.4445 20.5594C12.322 20.5594 13.137 20.3714 13.9515 20.1834C16.0201 22.0009 18.6527 23.192 21.6614 23.192C24.6075 23.192 27.3026 22.064 29.3713 20.1834C30.1863 20.4339 31.0009 20.5594 31.8783 20.5594C36.83 20.5594 40.8417 16.5477 40.8417 11.596C40.8422 6.64431 36.8305 2.63263 31.8783 2.63263ZM14.6406 11.659C14.5781 11.7216 14.4526 11.7845 14.3271 11.7845H13.5751V14.5427C13.5751 14.7307 13.387 14.9187 13.199 14.9187H11.5065V12.8502L10.0649 12.8497V14.9183H8.37235C8.18433 14.9183 7.99632 14.7302 7.99632 14.5422V11.7841H7.24426C7.18174 11.7841 7.05625 11.7216 6.99372 11.6586C6.93076 11.5961 6.93076 11.471 6.93076 11.4081C6.93076 11.2826 6.99329 11.22 7.05625 11.1575L10.5664 8.39937C10.6919 8.27388 10.8799 8.27388 11.0054 8.39937L12.6979 9.71593V8.90092C12.6979 8.77543 12.7604 8.71291 12.8859 8.71291H13.2619C13.3874 8.71291 13.45 8.77543 13.45 8.90092V10.2799L14.5155 11.0949C14.766 11.2825 14.766 11.5335 14.6406 11.659L14.6406 11.659ZM22.4134 16.1093V17.2373C22.4134 17.3628 22.2879 17.4879 22.1628 17.4879H21.0348C20.9093 17.4879 20.7842 17.3624 20.7842 17.2373V16.1093C19.6562 16.0468 18.7157 15.1692 18.6531 14.0408C18.6531 13.9153 18.7786 13.7902 18.9037 13.7902H20.0939C20.2193 13.7902 20.2819 13.8527 20.2819 13.9782C20.3444 14.3543 20.6579 14.6052 21.0339 14.6052H21.9744C22.5385 14.6052 23.1025 14.1662 23.1655 13.6022C23.228 12.9127 22.7265 12.4111 22.0374 12.4111H21.3479C19.9689 12.4111 18.7152 11.4081 18.5898 10.0291C18.4643 8.58749 19.4673 7.33395 20.8463 7.14545V6.01739C20.8463 5.8919 20.9718 5.76685 21.0969 5.76685H22.2249C22.3504 5.76685 22.4755 5.89233 22.4755 6.01739V7.14545C23.6035 7.20797 24.544 8.08551 24.6066 9.21398C24.6066 9.33947 24.4811 9.46452 24.356 9.46452L23.228 9.46495C23.1025 9.46495 23.04 9.40243 23.04 9.27694C22.9774 8.90091 22.6639 8.64993 22.2879 8.64993H21.2849C20.7208 8.64993 20.1568 9.08893 20.0938 9.65296C20.0313 10.3425 20.5328 10.844 21.2219 10.844H22.0369C23.6039 10.844 24.8575 12.1606 24.6695 13.7901C24.607 14.9812 23.6044 15.9212 22.4134 16.1093L22.4134 16.1093ZM36.5796 10.9066C36.5796 11.1572 36.3916 11.3456 36.1406 11.3456H36.0152C36.0777 11.7216 36.1406 12.1606 36.1406 12.5992V14.7302C36.1406 14.9808 35.9526 15.1692 35.7017 15.1692H34.9496C34.6991 15.1692 34.5106 14.9812 34.5106 14.7302V14.0407H30.1229V14.7302C30.1229 14.9808 29.9349 15.1692 29.6839 15.1692H28.9319C28.6814 15.1692 28.4929 14.9812 28.4929 14.7302V12.5992C28.4929 12.1602 28.5554 11.7841 28.6184 11.3456H28.4929C28.2424 11.3456 28.0539 11.1576 28.0539 10.9066V10.6561C28.0539 10.4055 28.2419 10.2171 28.4929 10.2171H29.0569L29.433 9.08903C29.621 8.52498 30.1225 8.14896 30.7495 8.14896H33.9462C34.5732 8.14896 35.0743 8.52499 35.2628 9.08903L35.6388 10.2171H36.2029C36.4534 10.2171 36.6418 10.4051 36.6418 10.6561L36.6423 10.9066H36.5796Z" fill="#797DF2"/>
</svg>
