<svg width="59" height="52" viewBox="0 0 59 52" fill="none" xmlns="http://www.w3.org/2000/svg">
<path fill-rule="evenodd" clip-rule="evenodd" d="M29.4068 0C36.4907 0 42.1579 5.84446 42.1579 12.9284C42.1579 20.0123 36.4906 25.8568 29.4068 25.8568C22.3229 25.8568 16.4784 20.0123 16.4784 12.9284C16.4784 5.84446 22.3229 0 29.4068 0ZM24.6251 15.4079L26.5734 15.0536C26.9276 16.8248 27.9903 17.5329 29.7611 17.5329C31.001 17.5329 32.4176 17.0016 32.4176 15.5846C32.4176 12.9282 24.9794 14.699 24.9794 10.2715C24.9794 8.14609 26.5735 7.08374 28.3443 6.90663V4.95832H30.2926V6.72951C32.418 7.08374 33.6575 7.96934 34.0116 10.0944L32.0633 10.4486C31.8862 8.85455 30.8235 8.3232 29.4069 8.3232C28.5213 8.3232 26.9276 8.67743 26.9276 9.91727C26.9276 12.5737 34.5429 10.8028 34.5429 15.4075C34.5429 17.5329 32.7717 18.7724 30.8239 19.1265V20.7206H28.6984V19.1265C26.3963 18.9494 24.9794 17.7096 24.6252 15.4075L24.6251 15.4079Z" fill="#797DF2"/>
<path fill-rule="evenodd" clip-rule="evenodd" d="M27.6356 51.7135H13.2907C12.9364 50.6508 14.5305 47.6402 13.4678 45.3377C11.8737 41.7958 0.184812 37.1911 0.00843226 30.9927C-0.168687 27.6279 2.48773 11.8661 3.90458 6.19888C5.49865 -0.707921 10.6343 3.01111 9.57192 8.50105C13.4681 6.72987 13.291 11.6888 13.1138 13.8142C16.6558 15.9396 15.5931 17.5332 15.0621 24.794C13.4681 21.9605 11.8744 15.7618 7.26975 17.7101C4.79045 18.7728 4.79045 22.1376 5.8528 24.4398L9.39471 32.7636C10.2803 34.5347 13.8222 37.3682 15.5934 37.7224C13.9993 35.597 12.4056 34.7118 11.343 32.0551L7.62398 23.7313C7.09264 22.6686 6.73841 20.1894 8.15533 19.4809C10.1036 18.5954 10.9889 21.075 11.6972 22.6687C16.479 33.2949 20.021 29.3984 25.8658 36.1281C28.3451 38.9616 27.9913 51.5359 27.637 51.7132L27.6356 51.7135Z" fill="#797DF2"/>
<path fill-rule="evenodd" clip-rule="evenodd" d="M30.8234 51.7135H45.1684C45.5226 50.6508 43.9286 47.6402 44.9913 45.3377C46.5853 41.7958 58.2743 37.1911 58.4506 30.9927C58.6278 27.6279 55.9713 11.8661 54.5545 6.19888C52.9604 -0.707921 47.8248 3.01111 48.8871 8.50105C44.991 6.72987 45.1681 11.6888 45.3452 13.8142C41.8033 15.9396 42.8659 17.5332 43.3969 24.794C44.991 21.9605 46.5847 15.7618 51.1893 17.7101C53.6686 18.7728 53.6686 22.1376 52.6063 24.4398L49.0644 32.7636C48.1788 34.5347 44.6368 37.3682 42.8657 37.7224C44.4597 35.597 46.0534 34.7118 47.116 32.0551L50.8351 23.7313C51.3664 22.6686 51.7207 20.1894 50.3037 19.4809C48.3554 18.5954 47.4702 21.075 46.7618 22.6687C41.9801 33.2949 38.4381 29.3984 32.5932 36.1281C30.114 38.9616 30.2911 51.5359 30.8221 51.7132L30.8234 51.7135Z" fill="#797DF2"/>
</svg>
