<svg width="0" height="0" class="hidden">
  <symbol xmlns="http://www.w3.org/2000/svg" viewBox="0 0 20 20" id="email">
    <path d="M18 6L10 11L2 6V4L10 9L18 4V6ZM18 2H2C0.89 2 0 2.89 0 4V16C0 16.5304 0.210714 17.0391 0.585786 17.4142C0.960859 17.7893 1.46957 18 2 18H18C18.5304 18 19.0391 17.7893 19.4142 17.4142C19.7893 17.0391 20 16.5304 20 16V4C20 2.89 19.1 2 18 2Z"></path>
  </symbol>
  <symbol xmlns="http://www.w3.org/2000/svg" viewBox="0 0 20 20" id="phone">
    <path d="M4.62 8.79C6.06 11.62 8.38 13.94 11.21 15.38L13.41 13.18C13.69 12.9 14.08 12.82 14.43 12.93C15.55 13.3 16.75 13.5 18 13.5C18.2652 13.5 18.5196 13.6054 18.7071 13.7929C18.8946 13.9804 19 14.2348 19 14.5V18C19 18.2652 18.8946 18.5196 18.7071 18.7071C18.5196 18.8946 18.2652 19 18 19C13.4913 19 9.1673 17.2089 5.97918 14.0208C2.79107 10.8327 1 6.50868 1 2C1 1.73478 1.10536 1.48043 1.29289 1.29289C1.48043 1.10536 1.73478 1 2 1H5.5C5.76522 1 6.01957 1.10536 6.20711 1.29289C6.39464 1.48043 6.5 1.73478 6.5 2C6.5 3.25 6.7 4.45 7.07 5.57C7.18 5.92 7.1 6.31 6.82 6.59L4.62 8.79Z"></path>
  </symbol>
  <symbol xmlns="http://www.w3.org/2000/svg" viewBox="0 0 30 30" id="close">
    <path d="M8.63574 8.63604C9.02627 8.24551 9.65943 8.24551 10.05 8.63604L21.3637 19.9497C21.7542 20.3403 21.7542 20.9734 21.3637 21.364V21.364C20.9731 21.7545 20.34 21.7545 19.9495 21.364L8.63574 10.0503C8.24522 9.65973 8.24522 9.02656 8.63574 8.63604V8.63604Z"></path>
    <path d="M21.3643 8.63604C21.7548 9.02656 21.7548 9.65973 21.3643 10.0503L10.0506 21.364C9.66003 21.7545 9.02686 21.7545 8.63634 21.364V21.364C8.24581 20.9734 8.24581 20.3403 8.63634 19.9497L19.95 8.63604C20.3406 8.24552 20.9737 8.24552 21.3643 8.63604V8.63604Z"></path>
  </symbol>
</svg>