<svg width="20" height="20" viewBox="0 0 20 20" xmlns="http://www.w3.org/2000/svg"><path d="M4.62 8.79C6.06 11.62 8.38 13.94 11.21 15.38L13.41 13.18C13.69 12.9 14.08 12.82 14.43 12.93C15.55 13.3 16.75 13.5 18 13.5C18.2652 13.5 18.5196 13.6054 18.7071 13.7929C18.8946 13.9804 19 14.2348 19 14.5V18C19 18.2652 18.8946 18.5196 18.7071 18.7071C18.5196 18.8946 18.2652 19 18 19C13.4913 19 9.1673 17.2089 5.97918 14.0208C2.79107 10.8327 1 6.50868 1 2C1 1.73478 1.10536 1.48043 1.29289 1.29289C1.48043 1.10536 1.73478 1 2 1H5.5C5.76522 1 6.01957 1.10536 6.20711 1.29289C6.39464 1.48043 6.5 1.73478 6.5 2C6.5 3.25 6.7 4.45 7.07 5.57C7.18 5.92 7.1 6.31 6.82 6.59L4.62 8.79Z"/></svg>