<svg width="38" height="58" viewBox="0 0 38 58" fill="none" xmlns="http://www.w3.org/2000/svg">
<path d="M37.6994 17.6422C37.5214 17.9097 37.2539 18.1767 36.8974 18.1767H34.937V33.235C33.6895 30.562 31.7291 28.3341 29.4126 26.5521V18.0873H27.4522C27.0957 18.0873 26.8286 17.9092 26.6502 17.5527C26.4722 17.2853 26.5612 16.9292 26.7392 16.6617L31.4617 10.3354C31.6397 10.0679 31.9072 9.97888 32.1747 9.97888C32.4421 9.97888 32.7092 10.0679 32.8876 10.3354L37.6101 16.6617C37.7885 17.0182 37.7885 17.3743 37.6995 17.6418L37.6994 17.6422Z" fill="#797DF2"/>
<path d="M24.334 6.68286C24.5121 6.95033 24.6015 7.3064 24.423 7.57386C24.245 7.84133 23.9775 8.10837 23.6211 8.10837H21.6606V23.4344C20.7696 23.2564 19.8786 23.2564 18.8982 23.2564C17.9182 23.2564 17.0272 23.3454 16.1357 23.4344L16.1361 8.10837H14.1757C13.8192 8.10837 13.5522 7.93034 13.3737 7.57386C13.1957 7.3064 13.2847 6.8609 13.4627 6.68286L18.1852 0.356477C18.3641 0.178443 18.6311 0 18.8986 0C19.166 0 19.4331 0.178034 19.6115 0.356477L24.334 6.68286Z" fill="#797DF2"/>
<path d="M11.0568 16.7517C11.2349 17.0191 11.3243 17.3752 11.1459 17.6427C10.9678 17.9101 10.7003 18.1772 10.3439 18.1772H8.38343V26.642C6.06656 28.335 4.10644 30.6519 2.85905 33.2359L2.85946 18.1776H0.899021C0.542544 18.1776 0.275487 17.9996 0.0970435 17.6431C-0.0809905 17.3756 0.00802665 17.0195 0.186063 16.7521L4.90854 10.4257C5.08657 10.1582 5.35403 10.0692 5.6215 10.0692C5.88897 10.0692 6.15601 10.1582 6.33447 10.4257L11.0568 16.7517Z" fill="#797DF2"/>
<path d="M18.8984 31.1862C13.463 31.1862 9.09705 35.5521 9.09705 40.9875C9.09705 46.423 13.463 50.7889 18.8984 50.7889C24.3338 50.7889 28.6998 46.423 28.6998 40.9875C28.6998 35.6416 24.3338 31.1862 18.8984 31.1862ZM18.8984 40.097C20.7694 40.097 22.2843 41.612 22.2843 43.4829C22.2843 44.9979 21.2149 46.3343 19.7894 46.7799V47.4929C19.7894 48.0274 19.4329 48.3839 18.8984 48.3839C18.3639 48.3839 18.0074 48.0274 18.0074 47.4929V46.7799C16.5819 46.4234 15.5124 45.0869 15.5124 43.4829C15.5124 42.9484 15.8689 42.5919 16.4034 42.5919C16.9379 42.5919 17.2944 42.9484 17.2944 43.4829C17.2944 44.3739 18.0074 45.0868 18.8983 45.0868C19.7893 45.0868 20.5022 44.3739 20.5022 43.4829C20.5022 42.592 19.7893 41.879 18.8983 41.879C17.0273 41.879 15.5124 40.364 15.5124 38.4931C15.5124 36.9781 16.5819 35.6417 18.0074 35.1961V34.4831C18.0074 33.9486 18.3638 33.5921 18.8984 33.5921C19.4329 33.5921 19.7894 33.9486 19.7894 34.4831V35.1961C21.2148 35.5526 22.2843 36.8891 22.2843 38.4931C22.2843 39.0276 21.9278 39.3841 21.3933 39.3841C20.8588 39.3841 20.5023 39.0276 20.5023 38.4931C20.5023 37.6021 19.7894 36.8892 18.8984 36.8892C18.0075 36.8892 17.2945 37.6021 17.2945 38.4931C17.2945 39.384 18.0075 40.097 18.8984 40.097Z" fill="#797DF2"/>
<path d="M18.8984 24.9493C10.077 24.9493 2.85925 32.1667 2.85925 40.9884C2.85925 49.8101 10.0767 57.0275 18.8984 57.0275C27.72 57.0275 34.9375 49.8101 34.9375 40.9884C34.9375 32.1667 27.72 24.9493 18.8984 24.9493ZM18.8984 52.5717C12.4829 52.5717 7.31509 47.4037 7.31509 40.9884C7.31509 34.573 12.483 29.4051 18.8984 29.4051C25.3138 29.4051 30.4817 34.5731 30.4817 40.9884C30.4817 47.4037 25.3133 52.5717 18.8984 52.5717Z" fill="#797DF2"/>
</svg>
