<svg width="57" height="48" viewBox="0 0 57 48" fill="none" xmlns="http://www.w3.org/2000/svg">
<path d="M51.0699 0H6.22868C3.18127 0 0.701904 2.47897 0.701904 5.52758V37.0876C0.701904 40.135 3.18127 42.6152 6.22868 42.6152H7.75743L9.58681 46.8986C9.75602 47.2947 10.1451 47.5513 10.576 47.5513H14.0691C14.4999 47.5513 14.889 47.2947 15.0582 46.8986L16.8884 42.6152H40.4105L42.2407 46.8986C42.4095 47.2947 42.799 47.5513 43.2294 47.5513H46.7225C47.1533 47.5513 47.5425 47.2947 47.7117 46.8986L49.5419 42.6152H51.0699C54.1177 42.6152 56.5975 40.135 56.5975 37.0876V5.52758C56.5971 2.47897 54.1177 0 51.0695 0H51.0699ZM51.8848 37.2235H5.41461V5.39093H51.8848V37.2235ZM49.7018 7.57485H7.59744V35.0406H49.7008L49.7018 7.57485ZM29.8419 13.7633C30.0517 13.5535 30.392 13.5535 30.6022 13.7633L31.8012 14.9623C32.0113 15.1724 32.0113 15.5124 31.8012 15.7229C31.5914 15.9327 31.251 15.9327 31.0409 15.7229L29.8419 14.5232C29.6321 14.3134 29.6321 13.973 29.8419 13.7633V13.7633ZM14.8399 28.7733C14.8399 29.3675 14.3588 29.8486 13.7646 29.8486C13.1704 29.8486 12.6893 29.3674 12.6893 28.7733V13.8421C12.6893 13.2479 13.1712 12.7669 13.7646 12.7669C14.358 12.7669 14.8399 13.248 14.8399 13.8421V28.7733ZM29.0444 21.6202H27.3491C27.0517 21.6202 26.8115 21.3793 26.8115 21.0826C26.8115 20.7858 27.0517 20.5441 27.3491 20.5441H29.0444C29.3419 20.5441 29.5817 20.7855 29.5817 21.0826C29.5813 21.3793 29.3411 21.6202 29.0444 21.6202ZM31.8017 27.2024L30.6028 28.4014C30.3926 28.6111 30.0522 28.6111 29.8425 28.4014C29.6327 28.1912 29.6327 27.8508 29.8425 27.6407L31.0414 26.4417C31.2516 26.2319 31.592 26.2319 31.8017 26.4417C32.0119 26.6519 32.0119 26.9918 31.8017 27.2024ZM37.6985 30.8943C37.6989 31.191 37.4583 31.4327 37.1612 31.4327C36.8645 31.4327 36.6228 31.1914 36.6228 30.8943V29.1991C36.6228 28.9023 36.8641 28.6614 37.1612 28.6618C37.458 28.6618 37.6985 28.902 37.6985 29.1991V30.8943ZM37.1612 27.5385C33.6011 27.5385 30.7045 24.6419 30.7045 21.0817C30.7045 17.8885 33.0353 15.2302 36.0854 14.7163V13.6515C36.0854 13.0573 36.5666 12.5762 37.1607 12.5762C37.7549 12.5762 38.236 13.0573 38.236 13.6515V14.7163C41.2862 15.2298 43.617 17.8885 43.617 21.0817C43.6174 24.6427 40.7212 27.5385 37.161 27.5385H37.1612ZM44.48 28.4009C44.2698 28.6107 43.9298 28.6107 43.7193 28.4009L42.5968 27.2772C42.3862 27.0674 42.3866 26.7271 42.5968 26.5177C42.8065 26.3075 43.1469 26.3075 43.3563 26.5177L44.48 27.6402C44.6894 27.8504 44.6894 28.1907 44.48 28.4009L44.48 28.4009ZM44.48 14.5238L43.3563 15.6467C43.1465 15.8569 42.8061 15.8565 42.5967 15.6467C42.3862 15.437 42.3862 15.0966 42.5967 14.8864L43.7192 13.7635C43.9298 13.5534 44.2698 13.5534 44.4799 13.7635C44.6893 13.9733 44.6893 14.3137 44.4799 14.5238H44.48ZM46.9733 21.6204H45.3861C45.0894 21.6204 44.8476 21.3794 44.8476 21.0827C44.8476 20.786 45.089 20.5443 45.3861 20.5443H46.9733C47.27 20.5443 47.5118 20.7856 47.5118 21.0827C47.5114 21.3794 47.2708 21.6204 46.9733 21.6204ZM42.5425 21.0827C42.5425 24.0502 40.129 26.4637 37.1615 26.4637C34.1937 26.4637 31.7802 24.0494 31.7802 21.0827C31.7802 18.4837 33.6322 16.3096 36.0858 15.8094V21.0788C36.0858 21.673 36.567 22.1541 37.1611 22.1541C37.7553 22.1541 38.2364 21.673 38.2364 21.0788V15.8094C40.69 16.3096 42.5425 18.4829 42.5425 21.0827Z" fill="#797DF2"/>
</svg>
